<svg xmlns="http://www.w3.org/2000/svg" xmlns:xlink="http://www.w3.org/1999/xlink" width="500" zoomAndPan="magnify" viewBox="0 0 375 149.999998" height="200" preserveAspectRatio="xMidYMid meet" version="1.0"><defs><g/><clipPath id="c0206aca66"><path d="M 15 43.019531 L 96.289062 43.019531 L 96.289062 113.488281 L 15 113.488281 Z M 15 43.019531 " clip-rule="nonzero"/></clipPath><clipPath id="1ed31d1e8a"><path d="M 19.464844 47.257812 L 51.121094 43.300781 C 54.085938 42.929688 57.085938 42.929688 60.050781 43.300781 L 91.707031 47.257812 C 94.257812 47.574219 96.171875 49.742188 96.171875 52.3125 L 96.171875 104.191406 C 96.171875 106.761719 94.257812 108.933594 91.707031 109.25 L 60.050781 113.207031 C 57.085938 113.578125 54.085938 113.578125 51.121094 113.207031 L 19.464844 109.25 C 16.914062 108.933594 15 106.761719 15 104.191406 L 15 52.3125 C 15 49.742188 16.914062 47.574219 19.464844 47.257812 Z M 19.464844 47.257812 " clip-rule="nonzero"/></clipPath><clipPath id="f0df385340"><path d="M 337.890625 23.53125 L 364.140625 23.53125 L 364.140625 49.78125 L 337.890625 49.78125 Z M 337.890625 23.53125 " clip-rule="nonzero"/></clipPath></defs><g fill="#f8f8f8" fill-opacity="1"><g transform="translate(101.697133, 110.598814)"><g><path d="M 60.359375 -68.484375 C 61.335938 -68.484375 61.828125 -67.992188 61.828125 -67.015625 L 61.828125 -1.46875 C 61.828125 -0.488281 61.335938 0 60.359375 0 L 48.328125 0 C 47.546875 0 46.957031 -0.328125 46.5625 -0.984375 L 20.25 -47.453125 L 20.25 -1.46875 C 20.25 -0.488281 19.757812 0 18.78125 0 L 8.3125 0 C 7.332031 0 6.84375 -0.488281 6.84375 -1.46875 L 6.84375 -67.015625 C 6.84375 -67.992188 7.332031 -68.484375 8.3125 -68.484375 L 20.34375 -68.484375 C 21.125 -68.484375 21.710938 -68.15625 22.109375 -67.5 L 48.421875 -21.03125 L 48.421875 -67.015625 C 48.421875 -67.992188 48.910156 -68.484375 49.890625 -68.484375 Z M 60.359375 -68.484375 "/></g></g></g><g fill="#f8f8f8" fill-opacity="1"><g transform="translate(163.134326, 110.598814)"><g><path d="M 52.734375 -71.421875 C 53.710938 -71.421875 54.203125 -70.929688 54.203125 -69.953125 L 54.203125 -1.46875 C 54.203125 -0.488281 53.710938 0 52.734375 0 L 44.21875 0 C 43.375 0 42.882812 -0.488281 42.75 -1.46875 L 42.15625 -6.15625 C 40.59375 -4.132812 38.601562 -2.488281 36.1875 -1.21875 C 33.78125 0.0507812 30.945312 0.6875 27.6875 0.6875 C 23.1875 0.6875 19.191406 -0.40625 15.703125 -2.59375 C 12.210938 -4.78125 9.457031 -7.726562 7.4375 -11.4375 C 5.414062 -15.15625 4.40625 -19.300781 4.40625 -23.875 C 4.40625 -28.5625 5.414062 -32.796875 7.4375 -36.578125 C 9.457031 -40.367188 12.210938 -43.375 15.703125 -45.59375 C 19.191406 -47.8125 23.1875 -48.921875 27.6875 -48.921875 C 30.625 -48.921875 33.21875 -48.363281 35.46875 -47.25 C 37.71875 -46.144531 39.65625 -44.644531 41.28125 -42.75 L 41.28125 -69.953125 C 41.28125 -70.929688 41.769531 -71.421875 42.75 -71.421875 Z M 29.15625 -11.046875 C 32.800781 -11.046875 35.75 -12.285156 38 -14.765625 C 40.25 -17.242188 41.375 -20.3125 41.375 -23.96875 C 41.375 -26.382812 40.851562 -28.585938 39.8125 -30.578125 C 38.769531 -32.566406 37.332031 -34.160156 35.5 -35.359375 C 33.675781 -36.566406 31.5625 -37.171875 29.15625 -37.171875 C 25.5625 -37.171875 22.609375 -35.929688 20.296875 -33.453125 C 17.984375 -30.972656 16.828125 -27.8125 16.828125 -23.96875 C 16.828125 -20.25 17.984375 -17.164062 20.296875 -14.71875 C 22.609375 -12.269531 25.5625 -11.046875 29.15625 -11.046875 Z M 29.15625 -11.046875 "/></g></g></g><g fill="#f8f8f8" fill-opacity="1"><g transform="translate(215.962412, 110.598814)"><g><path d="M 51.359375 -25.234375 C 51.359375 -23.347656 51.160156 -21.914062 50.765625 -20.9375 C 50.378906 -19.957031 49.4375 -19.46875 47.9375 -19.46875 L 17.21875 -19.46875 C 17.9375 -16.40625 19.46875 -14.023438 21.8125 -12.328125 C 24.164062 -10.628906 27.195312 -9.78125 30.90625 -9.78125 C 34.5625 -9.78125 37.957031 -10.890625 41.09375 -13.109375 C 41.9375 -13.628906 42.648438 -13.597656 43.234375 -13.015625 L 47.546875 -8.796875 C 48.265625 -8.148438 48.234375 -7.4375 47.453125 -6.65625 C 45.160156 -4.375 42.484375 -2.578125 39.421875 -1.265625 C 36.359375 0.0351562 33.097656 0.6875 29.640625 0.6875 C 24.679688 0.6875 20.296875 -0.421875 16.484375 -2.640625 C 12.671875 -4.859375 9.703125 -7.859375 7.578125 -11.640625 C 5.460938 -15.421875 4.40625 -19.59375 4.40625 -24.15625 C 4.40625 -28.789062 5.445312 -32.96875 7.53125 -36.6875 C 9.613281 -40.40625 12.484375 -43.375 16.140625 -45.59375 C 19.796875 -47.8125 23.9375 -48.921875 28.5625 -48.921875 C 33.195312 -48.921875 37.222656 -47.828125 40.640625 -45.640625 C 44.066406 -43.453125 46.707031 -40.5625 48.5625 -36.96875 C 50.425781 -33.382812 51.359375 -29.472656 51.359375 -25.234375 Z M 28.65625 -37.859375 C 25.726562 -37.859375 23.203125 -37.007812 21.078125 -35.3125 C 18.960938 -33.613281 17.609375 -31.132812 17.015625 -27.875 L 39.90625 -27.875 C 39.457031 -31.132812 38.1875 -33.613281 36.09375 -35.3125 C 34.007812 -37.007812 31.53125 -37.859375 28.65625 -37.859375 Z M 28.65625 -37.859375 "/></g></g></g><g fill="#f8f8f8" fill-opacity="1"><g transform="translate(264.485944, 110.598814)"><g><path d="M 52.734375 -47.9375 C 53.710938 -47.9375 54.203125 -47.445312 54.203125 -46.46875 L 54.203125 -1.46875 C 54.203125 -0.488281 53.710938 0 52.734375 0 L 44.21875 0 C 43.375 0 42.882812 -0.488281 42.75 -1.46875 L 42.15625 -6.15625 C 40.59375 -4.132812 38.601562 -2.488281 36.1875 -1.21875 C 33.78125 0.0507812 30.945312 0.6875 27.6875 0.6875 C 23.1875 0.6875 19.191406 -0.40625 15.703125 -2.59375 C 12.210938 -4.78125 9.457031 -7.726562 7.4375 -11.4375 C 5.414062 -15.15625 4.40625 -19.300781 4.40625 -23.875 C 4.40625 -28.5625 5.414062 -32.796875 7.4375 -36.578125 C 9.457031 -40.367188 12.210938 -43.375 15.703125 -45.59375 C 19.191406 -47.8125 23.1875 -48.921875 27.6875 -48.921875 C 30.945312 -48.921875 33.78125 -48.25 36.1875 -46.90625 C 38.601562 -45.570312 40.628906 -43.796875 42.265625 -41.578125 L 42.75 -46.46875 C 42.882812 -47.445312 43.375 -47.9375 44.21875 -47.9375 Z M 29.15625 -11.046875 C 32.800781 -11.046875 35.75 -12.285156 38 -14.765625 C 40.25 -17.242188 41.375 -20.3125 41.375 -23.96875 C 41.375 -26.382812 40.851562 -28.585938 39.8125 -30.578125 C 38.769531 -32.566406 37.332031 -34.160156 35.5 -35.359375 C 33.675781 -36.566406 31.5625 -37.171875 29.15625 -37.171875 C 25.5625 -37.171875 22.609375 -35.929688 20.296875 -33.453125 C 17.984375 -30.972656 16.828125 -27.8125 16.828125 -23.96875 C 16.828125 -20.25 17.984375 -17.164062 20.296875 -14.71875 C 22.609375 -12.269531 25.5625 -11.046875 29.15625 -11.046875 Z M 29.15625 -11.046875 "/></g></g></g><g fill="#f8f8f8" fill-opacity="1"><g transform="translate(317.31403, 110.598814)"><g><path d="M 5.875 -69.953125 C 5.875 -70.929688 6.363281 -71.421875 7.34375 -71.421875 L 17.3125 -71.421875 C 18.289062 -71.421875 18.78125 -70.929688 18.78125 -69.953125 L 18.78125 -1.46875 C 18.78125 -0.488281 18.289062 0 17.3125 0 L 7.34375 0 C 6.363281 0 5.875 -0.488281 5.875 -1.46875 Z M 5.875 -69.953125 "/></g></g></g><g clip-path="url(#c0206aca66)"><g clip-path="url(#1ed31d1e8a)"><path fill="#545454" d="M 15 42.742188 L 96.289062 42.742188 L 96.289062 113.765625 L 15 113.765625 Z M 15 42.742188 " fill-opacity="1" fill-rule="nonzero"/></g></g><g fill="#ff8c00" fill-opacity="1"><g transform="translate(32.254236, 97.764825)"><g><path d="M 13.671875 0 L 5.53125 0 L 5.53125 -42.546875 L 15.15625 -42.546875 L 32.234375 -15.125 L 33 -15.25 L 33 -42.546875 L 41.09375 -42.546875 L 41.09375 0 L 32.46875 0 L 14.40625 -29.265625 L 13.671875 -29.15625 Z M 13.671875 0 "/></g></g></g><path stroke-linecap="round" transform="matrix(0.687594, 0.000000000000000997, -0.000000000000000997, 0.687594, 37.692295, 95.759358)" fill="none" stroke-linejoin="miter" d="M 4.998028 5.002753 L 34.18724 5.002753 " stroke="#ff8c00" stroke-width="10" stroke-opacity="1" stroke-miterlimit="4"/><g clip-path="url(#f0df385340)"><path fill="#f8f8f8" d="M 351.09375 24.539062 C 344.371094 24.539062 338.902344 30.007812 338.902344 36.730469 C 338.902344 43.453125 344.371094 48.921875 351.09375 48.921875 C 357.8125 48.921875 363.28125 43.453125 363.28125 36.730469 C 363.28125 30.007812 357.8125 24.539062 351.09375 24.539062 Z M 351.09375 49.933594 C 349.308594 49.933594 347.582031 49.582031 345.953125 48.894531 C 344.382812 48.230469 342.96875 47.277344 341.757812 46.066406 C 340.546875 44.855469 339.59375 43.441406 338.929688 41.871094 C 338.238281 40.242188 337.890625 38.511719 337.890625 36.730469 C 337.890625 34.949219 338.238281 33.222656 338.929688 31.59375 C 339.59375 30.019531 340.546875 28.609375 341.757812 27.398438 C 342.96875 26.183594 344.382812 25.234375 345.953125 24.566406 C 347.582031 23.878906 349.308594 23.53125 351.09375 23.53125 C 352.875 23.53125 354.601562 23.878906 356.230469 24.566406 C 357.800781 25.234375 359.214844 26.183594 360.425781 27.398438 C 361.640625 28.609375 362.589844 30.019531 363.253906 31.59375 C 363.945312 33.222656 364.292969 34.949219 364.292969 36.730469 C 364.292969 38.511719 363.945312 40.242188 363.253906 41.871094 C 362.589844 43.441406 361.640625 44.855469 360.425781 46.066406 C 359.214844 47.277344 357.800781 48.230469 356.230469 48.894531 C 354.601562 49.582031 352.875 49.933594 351.09375 49.933594 " fill-opacity="1" fill-rule="nonzero"/></g><path fill="#f8f8f8" d="M 345.511719 40.839844 L 345.511719 33.714844 L 342.792969 33.714844 L 342.792969 32.621094 L 349.566406 32.621094 L 349.566406 33.714844 L 346.855469 33.714844 L 346.855469 40.839844 L 345.511719 40.839844 " fill-opacity="1" fill-rule="nonzero"/><path fill="#f8f8f8" d="M 358.042969 40.839844 L 358.042969 36.675781 C 358.042969 36.320312 358.054688 35.921875 358.070312 35.496094 L 358.078125 33.882812 C 357.996094 34.132812 357.410156 35.90625 357.320312 36.152344 L 355.601562 40.839844 L 354.746094 40.839844 L 353.027344 36.152344 C 352.9375 35.90625 352.339844 34.25 352.257812 34.003906 L 352.277344 35.5 C 352.292969 35.90625 352.300781 36.300781 352.300781 36.667969 L 352.300781 40.839844 L 350.957031 40.839844 L 350.957031 32.621094 L 352.941406 32.621094 L 354.371094 36.5625 C 354.5625 37.09375 354.75 37.664062 354.925781 38.257812 L 355.164062 39.074219 L 355.410156 38.257812 C 355.566406 37.730469 355.753906 37.164062 355.964844 36.582031 L 357.394531 32.621094 L 359.390625 32.621094 L 359.390625 40.839844 L 358.042969 40.839844 " fill-opacity="1" fill-rule="nonzero"/></svg>